<svg xmlns="http://www.w3.org/2000/svg" xmlns:xlink="http://www.w3.org/1999/xlink" width="2592" height="576" version="1.1" viewBox="0 0 1944 432"><metadata><rdf:RDF xmlns:cc="http://creativecommons.org/ns#" xmlns:dc="http://purl.org/dc/elements/1.1/" xmlns:rdf="http://www.w3.org/1999/02/22-rdf-syntax-ns#"><cc:Work><dc:type rdf:resource="http://purl.org/dc/dcmitype/StillImage"/><dc:date>2021-06-02T13:02:43.267011</dc:date><dc:format>image/svg+xml</dc:format><dc:creator><cc:Agent><dc:title>Matplotlib v3.3.1, https://matplotlib.org/</dc:title></cc:Agent></dc:creator></cc:Work></rdf:RDF></metadata><defs><style type="text/css">*{stroke-linecap:butt;stroke-linejoin:round}</style></defs><g id="figure_1"><g id="patch_1"><path d="M 0 432 L 1944 432 L 1944 0 L 0 0 z" style="fill:#fff"/></g><g id="axes_1"><g id="patch_2"><path d="M 243 378 L 1749.6 378 L 1749.6 51.84 L 243 51.84 z" style="fill:#eaeaf2"/></g><g id="matplotlib.axis_1"><g id="xtick_1"><g id="line2d_1"><path d="M 247.842149 378 L 247.842149 51.84" clip-path="url(#p74a37250c4)" style="fill:none;stroke:#fff;stroke-linecap:round;stroke-width:.8"/></g><g id="text_1"><g style="fill:#262626" transform="translate(211.146836 399.315625)scale(0.2 -0.2)"><defs><path id="ArialMT-50" d="M 50.34375 8.453125 L 50.34375 0 L 3.03125 0 Q 2.9375 3.171875 4.046875 6.109375 Q 5.859375 10.9375 9.828125 15.625 Q 13.8125 20.3125 21.34375 26.46875 Q 33.015625 36.03125 37.109375 41.625 Q 41.21875 47.21875 41.21875 52.203125 Q 41.21875 57.421875 37.46875 61 Q 33.734375 64.59375 27.734375 64.59375 Q 21.390625 64.59375 17.578125 60.78125 Q 13.765625 56.984375 13.71875 50.25 L 4.6875 51.171875 Q 5.609375 61.28125 11.65625 66.578125 Q 17.71875 71.875 27.9375 71.875 Q 38.234375 71.875 44.234375 66.15625 Q 50.25 60.453125 50.25 52 Q 50.25 47.703125 48.484375 43.546875 Q 46.734375 39.40625 42.65625 34.8125 Q 38.578125 30.21875 29.109375 22.21875 Q 21.1875 15.578125 18.9375 13.203125 Q 16.703125 10.84375 15.234375 8.453125 z"/><path id="ArialMT-48" d="M 4.15625 35.296875 Q 4.15625 48 6.765625 55.734375 Q 9.375 63.484375 14.515625 67.671875 Q 19.671875 71.875 27.484375 71.875 Q 33.25 71.875 37.59375 69.546875 Q 41.9375 67.234375 44.765625 62.859375 Q 47.609375 58.5 49.21875 52.21875 Q 50.828125 45.953125 50.828125 35.296875 Q 50.828125 22.703125 48.234375 14.96875 Q 45.65625 7.234375 40.5 3 Q 35.359375 -1.21875 27.484375 -1.21875 Q 17.140625 -1.21875 11.234375 6.203125 Q 4.15625 15.140625 4.15625 35.296875 z M 13.1875 35.296875 Q 13.1875 17.671875 17.3125 11.828125 Q 21.4375 6 27.484375 6 Q 33.546875 6 37.671875 11.859375 Q 41.796875 17.71875 41.796875 35.296875 Q 41.796875 52.984375 37.671875 58.78125 Q 33.546875 64.59375 27.390625 64.59375 Q 21.34375 64.59375 17.71875 59.46875 Q 13.1875 52.9375 13.1875 35.296875 z"/><path id="ArialMT-45" d="M 3.171875 21.484375 L 3.171875 30.328125 L 30.171875 30.328125 L 30.171875 21.484375 z"/><path id="ArialMT-49" d="M 37.25 0 L 28.46875 0 L 28.46875 56 Q 25.296875 52.984375 20.140625 49.953125 Q 14.984375 46.921875 10.890625 45.40625 L 10.890625 53.90625 Q 18.265625 57.375 23.78125 62.296875 Q 29.296875 67.234375 31.59375 71.875 L 37.25 71.875 z"/></defs><use xlink:href="#ArialMT-50"/><use x="55.615" xlink:href="#ArialMT-48"/><use x="111.23" xlink:href="#ArialMT-50"/><use x="166.846" xlink:href="#ArialMT-48"/><use x="222.461" xlink:href="#ArialMT-45"/><use x="255.762" xlink:href="#ArialMT-48"/><use x="311.377" xlink:href="#ArialMT-49"/></g></g></g><g id="xtick_2"><g id="line2d_2"><path d="M 413.858678 378 L 413.858678 51.84" clip-path="url(#p74a37250c4)" style="fill:none;stroke:#fff;stroke-linecap:round;stroke-width:.8"/></g><g id="text_2"><g style="fill:#262626" transform="translate(377.163365 399.315625)scale(0.2 -0.2)"><defs><path id="ArialMT-51" d="M 4.203125 18.890625 L 12.984375 20.0625 Q 14.5 12.59375 18.140625 9.296875 Q 21.78125 6 27 6 Q 33.203125 6 37.46875 10.296875 Q 41.75 14.59375 41.75 20.953125 Q 41.75 27 37.796875 30.921875 Q 33.84375 34.859375 27.734375 34.859375 Q 25.25 34.859375 21.53125 33.890625 L 22.515625 41.609375 Q 23.390625 41.5 23.921875 41.5 Q 29.546875 41.5 34.03125 44.421875 Q 38.53125 47.359375 38.53125 53.46875 Q 38.53125 58.296875 35.25 61.46875 Q 31.984375 64.65625 26.8125 64.65625 Q 21.6875 64.65625 18.265625 61.421875 Q 14.84375 58.203125 13.875 51.765625 L 5.078125 53.328125 Q 6.6875 62.15625 12.390625 67.015625 Q 18.109375 71.875 26.609375 71.875 Q 32.46875 71.875 37.390625 69.359375 Q 42.328125 66.84375 44.9375 62.5 Q 47.5625 58.15625 47.5625 53.265625 Q 47.5625 48.640625 45.0625 44.828125 Q 42.578125 41.015625 37.703125 38.765625 Q 44.046875 37.3125 47.5625 32.6875 Q 51.078125 28.078125 51.078125 21.140625 Q 51.078125 11.765625 44.234375 5.25 Q 37.40625 -1.265625 26.953125 -1.265625 Q 17.53125 -1.265625 11.296875 4.34375 Q 5.078125 9.96875 4.203125 18.890625 z"/></defs><use xlink:href="#ArialMT-50"/><use x="55.615" xlink:href="#ArialMT-48"/><use x="111.23" xlink:href="#ArialMT-50"/><use x="166.846" xlink:href="#ArialMT-48"/><use x="222.461" xlink:href="#ArialMT-45"/><use x="255.762" xlink:href="#ArialMT-48"/><use x="311.377" xlink:href="#ArialMT-51"/></g></g></g><g id="xtick_3"><g id="line2d_3"><path d="M 582.642149 378 L 582.642149 51.84" clip-path="url(#p74a37250c4)" style="fill:none;stroke:#fff;stroke-linecap:round;stroke-width:.8"/></g><g id="text_3"><g style="fill:#262626" transform="translate(545.946836 399.315625)scale(0.2 -0.2)"><defs><path id="ArialMT-53" d="M 4.15625 18.75 L 13.375 19.53125 Q 14.40625 12.796875 18.140625 9.390625 Q 21.875 6 27.15625 6 Q 33.5 6 37.890625 10.78125 Q 42.28125 15.578125 42.28125 23.484375 Q 42.28125 31 38.0625 35.34375 Q 33.84375 39.703125 27 39.703125 Q 22.75 39.703125 19.328125 37.765625 Q 15.921875 35.84375 13.96875 32.765625 L 5.71875 33.84375 L 12.640625 70.609375 L 48.25 70.609375 L 48.25 62.203125 L 19.671875 62.203125 L 15.828125 42.96875 Q 22.265625 47.46875 29.34375 47.46875 Q 38.71875 47.46875 45.15625 40.96875 Q 51.609375 34.46875 51.609375 24.265625 Q 51.609375 14.546875 45.953125 7.46875 Q 39.0625 -1.21875 27.15625 -1.21875 Q 17.390625 -1.21875 11.203125 4.25 Q 5.03125 9.71875 4.15625 18.75 z"/></defs><use xlink:href="#ArialMT-50"/><use x="55.615" xlink:href="#ArialMT-48"/><use x="111.23" xlink:href="#ArialMT-50"/><use x="166.846" xlink:href="#ArialMT-48"/><use x="222.461" xlink:href="#ArialMT-45"/><use x="255.762" xlink:href="#ArialMT-48"/><use x="311.377" xlink:href="#ArialMT-53"/></g></g></g><g id="xtick_4"><g id="line2d_4"><path d="M 751.42562 378 L 751.42562 51.84" clip-path="url(#p74a37250c4)" style="fill:none;stroke:#fff;stroke-linecap:round;stroke-width:.8"/></g><g id="text_4"><g style="fill:#262626" transform="translate(714.730307 399.315625)scale(0.2 -0.2)"><defs><path id="ArialMT-55" d="M 4.734375 62.203125 L 4.734375 70.65625 L 51.078125 70.65625 L 51.078125 63.8125 Q 44.234375 56.546875 37.515625 44.484375 Q 30.8125 32.421875 27.15625 19.671875 Q 24.515625 10.6875 23.78125 0 L 14.75 0 Q 14.890625 8.453125 18.0625 20.40625 Q 21.234375 32.375 27.171875 43.484375 Q 33.109375 54.59375 39.796875 62.203125 z"/></defs><use xlink:href="#ArialMT-50"/><use x="55.615" xlink:href="#ArialMT-48"/><use x="111.23" xlink:href="#ArialMT-50"/><use x="166.846" xlink:href="#ArialMT-48"/><use x="222.461" xlink:href="#ArialMT-45"/><use x="255.762" xlink:href="#ArialMT-48"/><use x="311.377" xlink:href="#ArialMT-55"/></g></g></g><g id="xtick_5"><g id="line2d_5"><path d="M 922.976033 378 L 922.976033 51.84" clip-path="url(#p74a37250c4)" style="fill:none;stroke:#fff;stroke-linecap:round;stroke-width:.8"/></g><g id="text_5"><g style="fill:#262626" transform="translate(886.280721 399.315625)scale(0.2 -0.2)"><defs><path id="ArialMT-57" d="M 5.46875 16.546875 L 13.921875 17.328125 Q 14.984375 11.375 18.015625 8.6875 Q 21.046875 6 25.78125 6 Q 29.828125 6 32.875 7.859375 Q 35.9375 9.71875 37.890625 12.8125 Q 39.84375 15.921875 41.15625 21.1875 Q 42.484375 26.46875 42.484375 31.9375 Q 42.484375 32.515625 42.4375 33.6875 Q 39.796875 29.5 35.234375 26.875 Q 30.671875 24.265625 25.34375 24.265625 Q 16.453125 24.265625 10.296875 30.703125 Q 4.15625 37.15625 4.15625 47.703125 Q 4.15625 58.59375 10.578125 65.234375 Q 17 71.875 26.65625 71.875 Q 33.640625 71.875 39.421875 68.109375 Q 45.21875 64.359375 48.21875 57.390625 Q 51.21875 50.4375 51.21875 37.25 Q 51.21875 23.53125 48.234375 15.40625 Q 45.265625 7.28125 39.375 3.03125 Q 33.5 -1.21875 25.59375 -1.21875 Q 17.1875 -1.21875 11.859375 3.4375 Q 6.546875 8.109375 5.46875 16.546875 z M 41.453125 48.140625 Q 41.453125 55.71875 37.421875 60.15625 Q 33.40625 64.59375 27.734375 64.59375 Q 21.875 64.59375 17.53125 59.8125 Q 13.1875 55.03125 13.1875 47.40625 Q 13.1875 40.578125 17.3125 36.296875 Q 21.4375 32.03125 27.484375 32.03125 Q 33.59375 32.03125 37.515625 36.296875 Q 41.453125 40.578125 41.453125 48.140625 z"/></defs><use xlink:href="#ArialMT-50"/><use x="55.615" xlink:href="#ArialMT-48"/><use x="111.23" xlink:href="#ArialMT-50"/><use x="166.846" xlink:href="#ArialMT-48"/><use x="222.461" xlink:href="#ArialMT-45"/><use x="255.762" xlink:href="#ArialMT-48"/><use x="311.377" xlink:href="#ArialMT-57"/></g></g></g><g id="xtick_6"><g id="line2d_6"><path d="M 1091.759504 378 L 1091.759504 51.84" clip-path="url(#p74a37250c4)" style="fill:none;stroke:#fff;stroke-linecap:round;stroke-width:.8"/></g><g id="text_6"><g style="fill:#262626" transform="translate(1055.801692 399.315625)scale(0.2 -0.2)"><use xlink:href="#ArialMT-50"/><use x="55.615" xlink:href="#ArialMT-48"/><use x="111.23" xlink:href="#ArialMT-50"/><use x="166.846" xlink:href="#ArialMT-48"/><use x="222.461" xlink:href="#ArialMT-45"/><use x="255.762" xlink:href="#ArialMT-49"/><use x="304.002" xlink:href="#ArialMT-49"/></g></g></g><g id="xtick_7"><g id="line2d_7"><path d="M 1260.542975 378 L 1260.542975 51.84" clip-path="url(#p74a37250c4)" style="fill:none;stroke:#fff;stroke-linecap:round;stroke-width:.8"/></g><g id="text_7"><g style="fill:#262626" transform="translate(1223.847663 399.315625)scale(0.2 -0.2)"><use xlink:href="#ArialMT-50"/><use x="55.615" xlink:href="#ArialMT-48"/><use x="111.23" xlink:href="#ArialMT-50"/><use x="166.846" xlink:href="#ArialMT-49"/><use x="222.461" xlink:href="#ArialMT-45"/><use x="255.762" xlink:href="#ArialMT-48"/><use x="311.377" xlink:href="#ArialMT-49"/></g></g></g><g id="xtick_8"><g id="line2d_8"><path d="M 1423.792562 378 L 1423.792562 51.84" clip-path="url(#p74a37250c4)" style="fill:none;stroke:#fff;stroke-linecap:round;stroke-width:.8"/></g><g id="text_8"><g style="fill:#262626" transform="translate(1387.097249 399.315625)scale(0.2 -0.2)"><use xlink:href="#ArialMT-50"/><use x="55.615" xlink:href="#ArialMT-48"/><use x="111.23" xlink:href="#ArialMT-50"/><use x="166.846" xlink:href="#ArialMT-49"/><use x="222.461" xlink:href="#ArialMT-45"/><use x="255.762" xlink:href="#ArialMT-48"/><use x="311.377" xlink:href="#ArialMT-51"/></g></g></g><g id="xtick_9"><g id="line2d_9"><path d="M 1592.576033 378 L 1592.576033 51.84" clip-path="url(#p74a37250c4)" style="fill:none;stroke:#fff;stroke-linecap:round;stroke-width:.8"/></g><g id="text_9"><g style="fill:#262626" transform="translate(1555.880721 399.315625)scale(0.2 -0.2)"><use xlink:href="#ArialMT-50"/><use x="55.615" xlink:href="#ArialMT-48"/><use x="111.23" xlink:href="#ArialMT-50"/><use x="166.846" xlink:href="#ArialMT-49"/><use x="222.461" xlink:href="#ArialMT-45"/><use x="255.762" xlink:href="#ArialMT-48"/><use x="311.377" xlink:href="#ArialMT-53"/></g></g></g></g><g id="matplotlib.axis_2"><g id="ytick_1"><g id="line2d_10"><path d="M 243 363.67038 L 1749.6 363.67038" clip-path="url(#p74a37250c4)" style="fill:none;stroke:#fff;stroke-linecap:round;stroke-width:.8"/></g><g id="text_10"><g style="fill:#262626" transform="translate(224.878125 370.828193)scale(0.2 -0.2)"><use xlink:href="#ArialMT-48"/></g></g></g><g id="ytick_2"><g id="line2d_11"><path d="M 243 314.08692 L 1749.6 314.08692" clip-path="url(#p74a37250c4)" style="fill:none;stroke:#fff;stroke-linecap:round;stroke-width:.8"/></g><g id="text_11"><g style="fill:#262626" transform="translate(202.634375 321.244733)scale(0.2 -0.2)"><use xlink:href="#ArialMT-49"/><use x="55.615" xlink:href="#ArialMT-48"/><use x="111.23" xlink:href="#ArialMT-48"/></g></g></g><g id="ytick_3"><g id="line2d_12"><path d="M 243 264.50346 L 1749.6 264.50346" clip-path="url(#p74a37250c4)" style="fill:none;stroke:#fff;stroke-linecap:round;stroke-width:.8"/></g><g id="text_12"><g style="fill:#262626" transform="translate(202.634375 271.661273)scale(0.2 -0.2)"><use xlink:href="#ArialMT-50"/><use x="55.615" xlink:href="#ArialMT-48"/><use x="111.23" xlink:href="#ArialMT-48"/></g></g></g><g id="ytick_4"><g id="line2d_13"><path d="M 243 214.92 L 1749.6 214.92" clip-path="url(#p74a37250c4)" style="fill:none;stroke:#fff;stroke-linecap:round;stroke-width:.8"/></g><g id="text_13"><g style="fill:#262626" transform="translate(202.634375 222.077812)scale(0.2 -0.2)"><use xlink:href="#ArialMT-51"/><use x="55.615" xlink:href="#ArialMT-48"/><use x="111.23" xlink:href="#ArialMT-48"/></g></g></g><g id="ytick_5"><g id="line2d_14"><path d="M 243 165.33654 L 1749.6 165.33654" clip-path="url(#p74a37250c4)" style="fill:none;stroke:#fff;stroke-linecap:round;stroke-width:.8"/></g><g id="text_14"><g style="fill:#262626" transform="translate(202.634375 172.494352)scale(0.2 -0.2)"><defs><path id="ArialMT-52" d="M 32.328125 0 L 32.328125 17.140625 L 1.265625 17.140625 L 1.265625 25.203125 L 33.9375 71.578125 L 41.109375 71.578125 L 41.109375 25.203125 L 50.78125 25.203125 L 50.78125 17.140625 L 41.109375 17.140625 L 41.109375 0 z M 32.328125 25.203125 L 32.328125 57.46875 L 9.90625 25.203125 z"/></defs><use xlink:href="#ArialMT-52"/><use x="55.615" xlink:href="#ArialMT-48"/><use x="111.23" xlink:href="#ArialMT-48"/></g></g></g><g id="ytick_6"><g id="line2d_15"><path d="M 243 115.75308 L 1749.6 115.75308" clip-path="url(#p74a37250c4)" style="fill:none;stroke:#fff;stroke-linecap:round;stroke-width:.8"/></g><g id="text_15"><g style="fill:#262626" transform="translate(202.634375 122.910892)scale(0.2 -0.2)"><use xlink:href="#ArialMT-53"/><use x="55.615" xlink:href="#ArialMT-48"/><use x="111.23" xlink:href="#ArialMT-48"/></g></g></g><g id="ytick_7"><g id="line2d_16"><path d="M 243 66.16962 L 1749.6 66.16962" clip-path="url(#p74a37250c4)" style="fill:none;stroke:#fff;stroke-linecap:round;stroke-width:.8"/></g><g id="text_16"><g style="fill:#262626" transform="translate(202.634375 73.327432)scale(0.2 -0.2)"><defs><path id="ArialMT-54" d="M 49.75 54.046875 L 41.015625 53.375 Q 39.84375 58.546875 37.703125 60.890625 Q 34.125 64.65625 28.90625 64.65625 Q 24.703125 64.65625 21.53125 62.3125 Q 17.390625 59.28125 14.984375 53.46875 Q 12.59375 47.65625 12.5 36.921875 Q 15.671875 41.75 20.265625 44.09375 Q 24.859375 46.4375 29.890625 46.4375 Q 38.671875 46.4375 44.84375 39.96875 Q 51.03125 33.5 51.03125 23.25 Q 51.03125 16.5 48.125 10.71875 Q 45.21875 4.9375 40.140625 1.859375 Q 35.0625 -1.21875 28.609375 -1.21875 Q 17.625 -1.21875 10.6875 6.859375 Q 3.765625 14.9375 3.765625 33.5 Q 3.765625 54.25 11.421875 63.671875 Q 18.109375 71.875 29.4375 71.875 Q 37.890625 71.875 43.28125 67.140625 Q 48.6875 62.40625 49.75 54.046875 z M 13.875 23.1875 Q 13.875 18.65625 15.796875 14.5 Q 17.71875 10.359375 21.1875 8.171875 Q 24.65625 6 28.46875 6 Q 34.03125 6 38.03125 10.484375 Q 42.046875 14.984375 42.046875 22.703125 Q 42.046875 30.125 38.078125 34.390625 Q 34.125 38.671875 28.125 38.671875 Q 22.171875 38.671875 18.015625 34.390625 Q 13.875 30.125 13.875 23.1875 z"/></defs><use xlink:href="#ArialMT-54"/><use x="55.615" xlink:href="#ArialMT-48"/><use x="111.23" xlink:href="#ArialMT-48"/></g></g></g></g><g id="line2d_17"><path d="M 311.481818 363.174545 L 317.015702 311.607747 L 319.782645 319.045266 L 322.549587 301.19522 L 325.316529 305.161897 L 328.083471 351.77035 L 330.850413 357.22453 L 333.617355 343.341161 L 339.15124 359.207869 L 341.918182 353.753688 L 344.685124 362.678711 L 347.452066 350.282846 L 350.219008 360.199538 L 352.98595 324.003612 L 355.752893 339.374485 L 358.519835 362.678711 L 361.286777 363.174545 L 364.053719 330.449462 L 366.820661 362.678711 L 369.587603 316.070258 L 372.354545 350.77868 L 375.121488 358.712034 L 377.88843 357.22453 L 380.655372 355.241192 L 383.422314 346.812004 L 386.189256 175.749067 L 388.956198 225.828361 L 391.72314 296.236874 L 394.490083 255.578437 L 397.257025 286.816017 L 400.023967 340.366154 L 402.790909 353.753688 L 405.557851 295.245205 L 408.324793 309.128574 L 411.091736 334.416139 L 413.858678 311.607747 L 416.62562 356.728696 L 419.392562 347.307838 L 422.159504 359.703703 L 424.926446 353.257853 L 430.460331 297.228544 L 433.227273 325.98695 L 435.994215 356.232861 L 438.761157 352.762019 L 441.528099 360.199538 L 444.295041 328.961958 L 447.061983 348.299507 L 449.828926 328.466123 L 452.595868 292.766032 L 455.36281 352.762019 L 458.129752 310.616078 L 460.896694 341.853658 L 463.663636 343.341161 L 466.430579 325.491116 L 469.197521 278.386829 L 471.964463 360.199538 L 474.731405 350.77868 L 477.498347 273.924317 L 480.265289 321.524439 L 483.032231 344.332831 L 485.799174 341.853658 L 488.566116 342.845327 L 491.333058 344.828665 L 494.1 331.936966 L 496.866942 350.282846 L 499.633884 354.249523 L 502.400826 355.737026 L 505.167769 353.257853 L 507.934711 351.274515 L 510.701653 326.482785 L 513.468595 363.174545 L 516.235537 357.22453 L 519.002479 362.182876 L 521.769421 357.22453 L 524.536364 363.174545 L 527.303306 315.078589 L 530.070248 276.40349 L 532.83719 355.737026 L 535.604132 354.745357 L 538.371074 331.936966 L 541.138017 349.291177 L 543.904959 357.22453 L 546.671901 317.061928 L 549.438843 350.77868 L 552.205785 356.728696 L 554.972727 318.053597 L 557.739669 348.299507 L 560.506612 319.045266 L 563.273554 355.241192 L 566.040496 320.036935 L 568.807438 313.591085 L 571.57438 358.712034 L 574.341322 360.695372 L 577.108264 342.349492 L 579.875207 337.886981 L 582.642149 355.737026 L 585.409091 310.616078 L 588.176033 341.357823 L 593.709917 339.374485 L 596.47686 342.845327 L 599.243802 361.191207 L 602.010744 286.816017 L 604.777686 345.3245 L 607.544628 327.970289 L 610.31157 326.97862 L 613.078512 330.449462 L 615.845455 356.232861 L 618.612397 354.745357 L 621.379339 350.77868 L 624.146281 326.97862 L 626.913223 343.341161 L 629.680165 349.787011 L 632.447107 350.282846 L 635.21405 343.836996 L 637.980992 354.745357 L 640.747934 363.174545 L 643.514876 338.87865 L 646.281818 353.257853 L 649.04876 345.820334 L 651.815702 356.232861 L 654.582645 357.720365 L 657.349587 273.428483 L 660.116529 358.712034 L 662.883471 361.687042 L 665.650413 359.207869 L 668.417355 348.795342 L 671.184298 349.291177 L 673.95124 350.282846 L 676.718182 355.241192 L 679.485124 248.140918 L 682.252066 355.737026 L 685.019008 361.687042 L 687.78595 355.241192 L 690.552893 362.678711 L 693.319835 332.928635 L 698.853719 253.099264 L 701.620661 339.374485 L 704.387603 327.970289 L 707.154545 331.441131 L 709.921488 298.220213 L 712.68843 354.249523 L 715.455372 361.191207 L 718.222314 355.737026 L 720.989256 361.687042 L 723.756198 360.199538 L 726.52314 341.853658 L 729.290083 346.316169 L 732.057025 356.728696 L 734.823967 348.299507 L 737.590909 303.674393 L 740.357851 358.216199 L 743.124793 330.945296 L 745.891736 325.491116 L 748.658678 360.695372 L 751.42562 310.616078 L 754.192562 363.174545 L 756.959504 363.174545 L 759.726446 358.712034 L 762.493388 307.64107 L 765.260331 356.728696 L 768.027273 315.078589 L 770.794215 341.853658 L 773.561157 362.182876 L 776.328099 298.220213 L 779.095041 348.299507 L 781.861983 356.728696 L 787.395868 345.820334 L 790.16281 360.199538 L 792.929752 333.920304 L 798.463636 348.299507 L 801.230579 276.40349 L 803.997521 357.720365 L 809.531405 345.3245 L 812.298347 362.182876 L 815.065289 361.687042 L 817.832231 359.207869 L 820.599174 363.174545 L 823.366116 356.728696 L 826.133058 362.182876 L 831.666942 357.720365 L 834.433884 360.695372 L 837.200826 359.207869 L 839.967769 356.728696 L 842.734711 356.232861 L 845.501653 362.678711 L 848.268595 339.374485 L 851.035537 327.970289 L 853.802479 326.482785 L 856.569421 361.687042 L 859.336364 361.191207 L 862.103306 341.357823 L 864.870248 261.528452 L 867.63719 360.695372 L 870.404132 277.39516 L 873.171074 352.266184 L 875.938017 324.995281 L 878.704959 359.207869 L 881.471901 357.720365 L 887.005785 334.911973 L 889.772727 344.332831 L 892.539669 337.391146 L 895.306612 355.241192 L 898.073554 363.174545 L 900.840496 243.182572 L 903.607438 338.87865 L 906.37438 215.415835 L 909.141322 302.682724 L 911.908264 354.249523 L 914.675207 363.174545 L 917.442149 352.266184 L 925.742975 324.499447 L 928.509917 273.924317 L 931.27686 362.182876 L 934.043802 346.316169 L 936.810744 362.678711 L 939.577686 362.182876 L 945.11157 362.182876 L 947.878512 362.678711 L 950.645455 289.29519 L 953.412397 240.207565 L 956.179339 113.769742 L 958.946281 315.078589 L 961.713223 350.77868 L 964.480165 363.174545 L 967.247107 329.457793 L 970.01405 353.257853 L 972.780992 357.720365 L 975.547934 205.499143 L 978.314876 344.828665 L 981.081818 360.199538 L 983.84876 342.845327 L 986.615702 292.766032 L 989.382645 293.261867 L 992.149587 355.241192 L 994.916529 352.266184 L 997.683471 292.270198 L 1000.450413 339.374485 L 1003.217355 280.866002 L 1005.984298 318.549431 L 1008.75124 327.970289 L 1011.518182 294.749371 L 1014.285124 330.449462 L 1017.052066 313.095251 L 1019.819008 255.578437 L 1022.58595 328.961958 L 1025.352893 357.22453 L 1028.119835 218.390842 L 1030.886777 335.903642 L 1033.653719 350.77868 L 1036.420661 276.899325 L 1039.187603 349.291177 L 1041.954545 297.228544 L 1044.721488 357.22453 L 1047.48843 223.349188 L 1050.255372 340.861988 L 1053.022314 299.211882 L 1055.789256 323.011943 L 1058.556198 362.182876 L 1061.32314 351.274515 L 1064.090083 361.687042 L 1069.623967 361.687042 L 1075.157851 335.407808 L 1077.924793 348.299507 L 1080.691736 348.795342 L 1083.458678 347.803673 L 1086.22562 353.257853 L 1088.992562 316.566093 L 1091.759504 349.787011 L 1094.526446 299.211882 L 1097.293388 332.4328 L 1100.060331 302.682724 L 1102.827273 352.762019 L 1105.594215 344.828665 L 1108.361157 339.374485 L 1111.128099 314.08692 L 1113.895041 301.19522 L 1116.661983 272.932648 L 1119.428926 335.407808 L 1122.195868 347.803673 L 1124.96281 355.737026 L 1127.729752 357.720365 L 1130.496694 347.803673 L 1133.263636 353.753688 L 1136.030579 301.691055 L 1138.797521 309.128574 L 1141.564463 265.990964 L 1144.331405 307.64107 L 1147.098347 340.366154 L 1149.865289 338.382815 L 1152.632231 289.29519 L 1155.399174 272.932648 L 1158.166116 345.820334 L 1160.933058 361.687042 L 1163.7 358.712034 L 1166.466942 316.070258 L 1169.233884 330.449462 L 1172.000826 284.336844 L 1174.767769 244.174241 L 1177.534711 327.474454 L 1180.301653 361.191207 L 1183.068595 354.745357 L 1185.835537 338.382815 L 1188.602479 328.961958 L 1191.369421 302.18689 L 1194.136364 334.911973 L 1196.903306 349.291177 L 1199.670248 299.211882 L 1202.43719 285.328513 L 1205.204132 294.749371 L 1207.971074 315.078589 L 1210.738017 329.953627 L 1213.504959 352.762019 L 1216.271901 337.391146 L 1219.038843 318.549431 L 1221.805785 351.274515 L 1224.572727 325.491116 L 1227.339669 334.911973 L 1230.106612 349.787011 L 1232.873554 343.341161 L 1235.640496 356.728696 L 1238.407438 336.399477 L 1241.17438 344.828665 L 1243.941322 313.591085 L 1246.708264 357.22453 L 1249.475207 335.903642 L 1252.242149 331.936966 L 1255.009091 343.836996 L 1257.776033 342.349492 L 1260.542975 355.737026 L 1263.309917 332.928635 L 1266.07686 317.061928 L 1268.843802 358.712034 L 1274.377686 351.274515 L 1277.144628 232.770046 L 1279.91157 320.53277 L 1282.678512 359.703703 L 1285.445455 335.407808 L 1290.979339 363.174545 L 1293.746281 355.241192 L 1299.280165 358.216199 L 1302.047107 349.291177 L 1304.81405 363.174545 L 1313.114876 363.174545 L 1318.64876 358.712034 L 1324.182645 358.712034 L 1335.250413 361.687042 L 1338.017355 360.199538 L 1349.085124 363.174545 L 1562.139669 363.174545 L 1564.906612 362.182876 L 1567.673554 355.737026 L 1570.440496 332.4328 L 1573.207438 355.241192 L 1578.741322 155.419848 L 1581.508264 347.307838 L 1584.275207 239.215895 L 1587.042149 356.728696 L 1589.809091 295.74104 L 1592.576033 241.695068 L 1595.342975 336.895312 L 1598.109917 247.645084 L 1600.87686 344.828665 L 1603.643802 343.341161 L 1606.410744 264.999295 L 1609.177686 347.803673 L 1611.944628 331.441131 L 1614.71157 353.753688 L 1617.478512 343.836996 L 1620.245455 345.820334 L 1623.012397 338.87865 L 1625.779339 357.22453 L 1628.546281 358.216199 L 1631.313223 355.241192 L 1634.080165 329.953627 L 1636.847107 361.687042 L 1639.61405 195.582451 L 1642.380992 334.416139 L 1645.147934 300.699386 L 1647.914876 361.687042 L 1650.681818 329.457793 L 1653.44876 336.399477 L 1656.215702 253.099264 L 1658.982645 133.107291 L 1661.749587 66.665455 L 1664.516529 306.649401 L 1667.283471 290.286859 L 1670.050413 257.065941 L 1672.817355 307.145236 L 1675.584298 282.84934 L 1678.35124 211.944992 L 1681.118182 327.970289 L 1681.118182 327.970289" clip-path="url(#p74a37250c4)" style="fill:none;stroke:#1f77b4;stroke-linecap:round;stroke-width:1.5"/></g><g id="patch_3"><path d="M 243 378 L 243 51.84" style="fill:none;stroke:#fff;stroke-linecap:square;stroke-linejoin:miter;stroke-width:.8"/></g><g id="patch_4"><path d="M 1749.6 378 L 1749.6 51.84" style="fill:none;stroke:#fff;stroke-linecap:square;stroke-linejoin:miter;stroke-width:.8"/></g><g id="patch_5"><path d="M 243 378 L 1749.6 378" style="fill:none;stroke:#fff;stroke-linecap:square;stroke-linejoin:miter;stroke-width:.8"/></g><g id="patch_6"><path d="M 243 51.84 L 1749.6 51.84" style="fill:none;stroke:#fff;stroke-linecap:square;stroke-linejoin:miter;stroke-width:.8"/></g><g id="text_17"><g style="fill:#262626" transform="translate(772.869375 45.84)scale(0.24 -0.24)"><defs><path id="ArialMT-77" d="M 7.421875 0 L 7.421875 71.578125 L 21.6875 71.578125 L 38.625 20.90625 Q 40.96875 13.8125 42.046875 10.296875 Q 43.265625 14.203125 45.84375 21.78125 L 62.984375 71.578125 L 75.734375 71.578125 L 75.734375 0 L 66.609375 0 L 66.609375 59.90625 L 45.796875 0 L 37.25 0 L 16.546875 60.9375 L 16.546875 0 z"/><path id="ArialMT-101" d="M 42.09375 16.703125 L 51.171875 15.578125 Q 49.03125 7.625 43.21875 3.21875 Q 37.40625 -1.171875 28.375 -1.171875 Q 17 -1.171875 10.328125 5.828125 Q 3.65625 12.84375 3.65625 25.484375 Q 3.65625 38.578125 10.390625 45.796875 Q 17.140625 53.03125 27.875 53.03125 Q 38.28125 53.03125 44.875 45.953125 Q 51.46875 38.875 51.46875 26.03125 Q 51.46875 25.25 51.421875 23.6875 L 12.75 23.6875 Q 13.234375 15.140625 17.578125 10.59375 Q 21.921875 6.0625 28.421875 6.0625 Q 33.25 6.0625 36.671875 8.59375 Q 40.09375 11.140625 42.09375 16.703125 z M 13.234375 30.90625 L 42.1875 30.90625 Q 41.609375 37.453125 38.875 40.71875 Q 34.671875 45.796875 27.984375 45.796875 Q 21.921875 45.796875 17.796875 41.75 Q 13.671875 37.703125 13.234375 30.90625 z"/><path id="ArialMT-115" d="M 3.078125 15.484375 L 11.765625 16.84375 Q 12.5 11.625 15.84375 8.84375 Q 19.1875 6.0625 25.203125 6.0625 Q 31.25 6.0625 34.171875 8.515625 Q 37.109375 10.984375 37.109375 14.3125 Q 37.109375 17.28125 34.515625 19 Q 32.71875 20.171875 25.53125 21.96875 Q 15.875 24.421875 12.140625 26.203125 Q 8.40625 27.984375 6.46875 31.125 Q 4.546875 34.28125 4.546875 38.09375 Q 4.546875 41.546875 6.125 44.5 Q 7.71875 47.46875 10.453125 49.421875 Q 12.5 50.921875 16.03125 51.96875 Q 19.578125 53.03125 23.640625 53.03125 Q 29.734375 53.03125 34.34375 51.265625 Q 38.96875 49.515625 41.15625 46.5 Q 43.359375 43.5 44.1875 38.484375 L 35.59375 37.3125 Q 35.015625 41.3125 32.203125 43.546875 Q 29.390625 45.796875 24.265625 45.796875 Q 18.21875 45.796875 15.625 43.796875 Q 13.03125 41.796875 13.03125 39.109375 Q 13.03125 37.40625 14.109375 36.03125 Q 15.1875 34.625 17.484375 33.6875 Q 18.796875 33.203125 25.25 31.453125 Q 34.578125 28.953125 38.25 27.359375 Q 41.9375 25.78125 44.03125 22.75 Q 46.140625 19.734375 46.140625 15.234375 Q 46.140625 10.84375 43.578125 6.953125 Q 41.015625 3.078125 36.171875 0.953125 Q 31.34375 -1.171875 25.25 -1.171875 Q 15.140625 -1.171875 9.84375 3.03125 Q 4.546875 7.234375 3.078125 15.484375 z"/><path id="ArialMT-97" d="M 40.4375 6.390625 Q 35.546875 2.25 31.03125 0.53125 Q 26.515625 -1.171875 21.34375 -1.171875 Q 12.796875 -1.171875 8.203125 3 Q 3.609375 7.171875 3.609375 13.671875 Q 3.609375 17.484375 5.34375 20.625 Q 7.078125 23.78125 9.890625 25.6875 Q 12.703125 27.59375 16.21875 28.5625 Q 18.796875 29.25 24.03125 29.890625 Q 34.671875 31.15625 39.703125 32.90625 Q 39.75 34.71875 39.75 35.203125 Q 39.75 40.578125 37.25 42.78125 Q 33.890625 45.75 27.25 45.75 Q 21.046875 45.75 18.09375 43.578125 Q 15.140625 41.40625 13.71875 35.890625 L 5.125 37.0625 Q 6.296875 42.578125 8.984375 45.96875 Q 11.671875 49.359375 16.75 51.1875 Q 21.828125 53.03125 28.515625 53.03125 Q 35.15625 53.03125 39.296875 51.46875 Q 43.453125 49.90625 45.40625 47.53125 Q 47.359375 45.171875 48.140625 41.546875 Q 48.578125 39.3125 48.578125 33.453125 L 48.578125 21.734375 Q 48.578125 9.46875 49.140625 6.21875 Q 49.703125 2.984375 51.375 0 L 42.1875 0 Q 40.828125 2.734375 40.4375 6.390625 z M 39.703125 26.03125 Q 34.90625 24.078125 25.34375 22.703125 Q 19.921875 21.921875 17.671875 20.9375 Q 15.4375 19.96875 14.203125 18.09375 Q 12.984375 16.21875 12.984375 13.921875 Q 12.984375 10.40625 15.640625 8.0625 Q 18.3125 5.71875 23.4375 5.71875 Q 28.515625 5.71875 32.46875 7.9375 Q 36.421875 10.15625 38.28125 14.015625 Q 39.703125 17 39.703125 22.796875 z"/><path id="ArialMT-103" d="M 4.984375 -4.296875 L 13.53125 -5.5625 Q 14.0625 -9.515625 16.5 -11.328125 Q 19.78125 -13.765625 25.4375 -13.765625 Q 31.546875 -13.765625 34.859375 -11.328125 Q 38.1875 -8.890625 39.359375 -4.5 Q 40.046875 -1.8125 39.984375 6.78125 Q 34.234375 0 25.640625 0 Q 14.9375 0 9.078125 7.71875 Q 3.21875 15.4375 3.21875 26.21875 Q 3.21875 33.640625 5.90625 39.90625 Q 8.59375 46.1875 13.6875 49.609375 Q 18.796875 53.03125 25.6875 53.03125 Q 34.859375 53.03125 40.828125 45.609375 L 40.828125 51.859375 L 48.921875 51.859375 L 48.921875 7.03125 Q 48.921875 -5.078125 46.453125 -10.125 Q 44 -15.1875 38.640625 -18.109375 Q 33.296875 -21.046875 25.484375 -21.046875 Q 16.21875 -21.046875 10.5 -16.875 Q 4.78125 -12.703125 4.984375 -4.296875 z M 12.25 26.859375 Q 12.25 16.65625 16.296875 11.96875 Q 20.359375 7.28125 26.46875 7.28125 Q 32.515625 7.28125 36.609375 11.9375 Q 40.71875 16.609375 40.71875 26.5625 Q 40.71875 36.078125 36.5 40.90625 Q 32.28125 45.75 26.3125 45.75 Q 20.453125 45.75 16.34375 40.984375 Q 12.25 36.234375 12.25 26.859375 z"/><path id="ArialMT-32"/><path id="ArialMT-110" d="M 6.59375 0 L 6.59375 51.859375 L 14.5 51.859375 L 14.5 44.484375 Q 20.21875 53.03125 31 53.03125 Q 35.6875 53.03125 39.625 51.34375 Q 43.5625 49.65625 45.515625 46.921875 Q 47.46875 44.1875 48.25 40.4375 Q 48.734375 37.984375 48.734375 31.890625 L 48.734375 0 L 39.9375 0 L 39.9375 31.546875 Q 39.9375 36.921875 38.90625 39.578125 Q 37.890625 42.234375 35.28125 43.8125 Q 32.671875 45.40625 29.15625 45.40625 Q 23.53125 45.40625 19.453125 41.84375 Q 15.375 38.28125 15.375 28.328125 L 15.375 0 z"/><path id="ArialMT-116" d="M 25.78125 7.859375 L 27.046875 0.09375 Q 23.34375 -0.6875 20.40625 -0.6875 Q 15.625 -0.6875 12.984375 0.828125 Q 10.359375 2.34375 9.28125 4.8125 Q 8.203125 7.28125 8.203125 15.1875 L 8.203125 45.015625 L 1.765625 45.015625 L 1.765625 51.859375 L 8.203125 51.859375 L 8.203125 64.703125 L 16.9375 69.96875 L 16.9375 51.859375 L 25.78125 51.859375 L 25.78125 45.015625 L 16.9375 45.015625 L 16.9375 14.703125 Q 16.9375 10.9375 17.40625 9.859375 Q 17.875 8.796875 18.921875 8.15625 Q 19.96875 7.515625 21.921875 7.515625 Q 23.390625 7.515625 25.78125 7.859375 z"/><path id="ArialMT-112" d="M 6.59375 -19.875 L 6.59375 51.859375 L 14.59375 51.859375 L 14.59375 45.125 Q 17.4375 49.078125 21 51.046875 Q 24.5625 53.03125 29.640625 53.03125 Q 36.28125 53.03125 41.359375 49.609375 Q 46.4375 46.1875 49.015625 39.953125 Q 51.609375 33.734375 51.609375 26.3125 Q 51.609375 18.359375 48.75 11.984375 Q 45.90625 5.609375 40.453125 2.21875 Q 35.015625 -1.171875 29 -1.171875 Q 24.609375 -1.171875 21.109375 0.6875 Q 17.625 2.546875 15.375 5.375 L 15.375 -19.875 z M 14.546875 25.640625 Q 14.546875 15.625 18.59375 10.84375 Q 22.65625 6.0625 28.421875 6.0625 Q 34.28125 6.0625 38.453125 11.015625 Q 42.625 15.96875 42.625 26.375 Q 42.625 36.28125 38.546875 41.203125 Q 34.46875 46.140625 28.8125 46.140625 Q 23.1875 46.140625 18.859375 40.890625 Q 14.546875 35.640625 14.546875 25.640625 z"/><path id="ArialMT-114" d="M 6.5 0 L 6.5 51.859375 L 14.40625 51.859375 L 14.40625 44 Q 17.4375 49.515625 20 51.265625 Q 22.5625 53.03125 25.640625 53.03125 Q 30.078125 53.03125 34.671875 50.203125 L 31.640625 42.046875 Q 28.421875 43.953125 25.203125 43.953125 Q 22.3125 43.953125 20.015625 42.21875 Q 17.71875 40.484375 16.75 37.40625 Q 15.28125 32.71875 15.28125 27.15625 L 15.28125 0 z"/><path id="ArialMT-100" d="M 40.234375 0 L 40.234375 6.546875 Q 35.296875 -1.171875 25.734375 -1.171875 Q 19.53125 -1.171875 14.328125 2.25 Q 9.125 5.671875 6.265625 11.796875 Q 3.421875 17.921875 3.421875 25.875 Q 3.421875 33.640625 6 39.96875 Q 8.59375 46.296875 13.765625 49.65625 Q 18.953125 53.03125 25.34375 53.03125 Q 30.03125 53.03125 33.6875 51.046875 Q 37.359375 49.078125 39.65625 45.90625 L 39.65625 71.578125 L 48.390625 71.578125 L 48.390625 0 z M 12.453125 25.875 Q 12.453125 15.921875 16.640625 10.984375 Q 20.84375 6.0625 26.5625 6.0625 Q 32.328125 6.0625 36.34375 10.765625 Q 40.375 15.484375 40.375 25.140625 Q 40.375 35.796875 36.265625 40.765625 Q 32.171875 45.75 26.171875 45.75 Q 20.3125 45.75 16.375 40.96875 Q 12.453125 36.1875 12.453125 25.875 z"/><path id="ArialMT-121" d="M 6.203125 -19.96875 L 5.21875 -11.71875 Q 8.109375 -12.5 10.25 -12.5 Q 13.1875 -12.5 14.9375 -11.515625 Q 16.703125 -10.546875 17.828125 -8.796875 Q 18.65625 -7.46875 20.515625 -2.25 Q 20.75 -1.515625 21.296875 -0.09375 L 1.609375 51.859375 L 11.078125 51.859375 L 21.875 21.828125 Q 23.96875 16.109375 25.640625 9.8125 Q 27.15625 15.875 29.25 21.625 L 40.328125 51.859375 L 49.125 51.859375 L 29.390625 -0.875 Q 26.21875 -9.421875 24.46875 -12.640625 Q 22.125 -17 19.09375 -19.015625 Q 16.0625 -21.046875 11.859375 -21.046875 Q 9.328125 -21.046875 6.203125 -19.96875 z"/><path id="ArialMT-111" d="M 3.328125 25.921875 Q 3.328125 40.328125 11.328125 47.265625 Q 18.015625 53.03125 27.640625 53.03125 Q 38.328125 53.03125 45.109375 46.015625 Q 51.90625 39.015625 51.90625 26.65625 Q 51.90625 16.65625 48.90625 10.90625 Q 45.90625 5.171875 40.15625 2 Q 34.421875 -1.171875 27.640625 -1.171875 Q 16.75 -1.171875 10.03125 5.8125 Q 3.328125 12.796875 3.328125 25.921875 z M 12.359375 25.921875 Q 12.359375 15.96875 16.703125 11.015625 Q 21.046875 6.0625 27.640625 6.0625 Q 34.1875 6.0625 38.53125 11.03125 Q 42.875 16.015625 42.875 26.21875 Q 42.875 35.84375 38.5 40.796875 Q 34.125 45.75 27.640625 45.75 Q 21.046875 45.75 16.703125 40.8125 Q 12.359375 35.890625 12.359375 25.921875 z"/><path id="ArialMT-118" d="M 21 0 L 1.265625 51.859375 L 10.546875 51.859375 L 21.6875 20.796875 Q 23.484375 15.765625 25 10.359375 Q 26.171875 14.453125 28.265625 20.21875 L 39.796875 51.859375 L 48.828125 51.859375 L 29.203125 0 z"/><path id="ArialMT-105" d="M 6.640625 61.46875 L 6.640625 71.578125 L 15.4375 71.578125 L 15.4375 61.46875 z M 6.640625 0 L 6.640625 51.859375 L 15.4375 51.859375 L 15.4375 0 z"/><path id="ArialMT-109" d="M 6.59375 0 L 6.59375 51.859375 L 14.453125 51.859375 L 14.453125 44.578125 Q 16.890625 48.390625 20.9375 50.703125 Q 25 53.03125 30.171875 53.03125 Q 35.9375 53.03125 39.625 50.640625 Q 43.3125 48.25 44.828125 43.953125 Q 50.984375 53.03125 60.84375 53.03125 Q 68.5625 53.03125 72.703125 48.75 Q 76.859375 44.484375 76.859375 35.59375 L 76.859375 0 L 68.109375 0 L 68.109375 32.671875 Q 68.109375 37.9375 67.25 40.25 Q 66.40625 42.578125 64.15625 43.984375 Q 61.921875 45.40625 58.890625 45.40625 Q 53.421875 45.40625 49.796875 41.765625 Q 46.1875 38.140625 46.1875 30.125 L 46.1875 0 L 37.40625 0 L 37.40625 33.6875 Q 37.40625 39.546875 35.25 42.46875 Q 33.109375 45.40625 28.21875 45.40625 Q 24.515625 45.40625 21.359375 43.453125 Q 18.21875 41.5 16.796875 37.734375 Q 15.375 33.984375 15.375 26.90625 L 15.375 0 z"/></defs><use xlink:href="#ArialMT-77"/><use x="83.301" xlink:href="#ArialMT-101"/><use x="138.916" xlink:href="#ArialMT-115"/><use x="188.916" xlink:href="#ArialMT-115"/><use x="238.916" xlink:href="#ArialMT-97"/><use x="294.531" xlink:href="#ArialMT-103"/><use x="350.146" xlink:href="#ArialMT-101"/><use x="405.762" xlink:href="#ArialMT-115"/><use x="455.762" xlink:href="#ArialMT-32"/><use x="483.545" xlink:href="#ArialMT-115"/><use x="533.545" xlink:href="#ArialMT-101"/><use x="589.16" xlink:href="#ArialMT-110"/><use x="644.775" xlink:href="#ArialMT-116"/><use x="672.559" xlink:href="#ArialMT-32"/><use x="700.342" xlink:href="#ArialMT-112"/><use x="755.957" xlink:href="#ArialMT-101"/><use x="811.572" xlink:href="#ArialMT-114"/><use x="844.873" xlink:href="#ArialMT-32"/><use x="872.656" xlink:href="#ArialMT-100"/><use x="928.271" xlink:href="#ArialMT-97"/><use x="983.887" xlink:href="#ArialMT-121"/><use x="1033.887" xlink:href="#ArialMT-32"/><use x="1061.67" xlink:href="#ArialMT-111"/><use x="1117.285" xlink:href="#ArialMT-118"/><use x="1167.285" xlink:href="#ArialMT-101"/><use x="1222.9" xlink:href="#ArialMT-114"/><use x="1256.201" xlink:href="#ArialMT-32"/><use x="1283.984" xlink:href="#ArialMT-97"/><use x="1339.6" xlink:href="#ArialMT-32"/><use x="1367.383" xlink:href="#ArialMT-116"/><use x="1395.166" xlink:href="#ArialMT-105"/><use x="1417.383" xlink:href="#ArialMT-109"/><use x="1500.684" xlink:href="#ArialMT-101"/><use x="1556.299" xlink:href="#ArialMT-32"/><use x="1584.082" xlink:href="#ArialMT-112"/><use x="1639.697" xlink:href="#ArialMT-101"/><use x="1695.313" xlink:href="#ArialMT-114"/><use x="1728.613" xlink:href="#ArialMT-105"/><use x="1750.83" xlink:href="#ArialMT-111"/><use x="1806.445" xlink:href="#ArialMT-100"/></g></g></g></g><defs><clipPath id="p74a37250c4"><rect width="1506.6" height="326.16" x="243" y="51.84"/></clipPath></defs></svg>